<svg width="239" height="69" viewBox="0 0 239 69" fill="none" xmlns="http://www.w3.org/2000/svg">
<path d="M55.5083 20.24C55.9963 19.9479 56.7284 19.6704 57.7045 19.4076C58.7093 19.1447 59.7141 19.0133 60.7189 19.0133C62.1544 19.0133 63.4175 19.2323 64.5085 19.6704C65.6281 20.0793 66.3458 20.7365 66.6616 21.6419C67.1784 23.1606 67.7382 24.9276 68.3411 26.9428C68.944 28.9581 69.5468 31.0463 70.1497 33.2076C70.7526 35.3396 71.3411 37.4571 71.9153 39.56C72.4895 41.6336 72.9919 43.4736 73.4225 45.08C73.078 45.4889 72.5613 45.8101 71.8722 46.0438C71.1832 46.3066 70.365 46.4381 69.4177 46.4381C68.7286 46.4381 68.1401 46.3797 67.6521 46.2628C67.1927 46.146 66.8052 45.9708 66.4894 45.7371C66.2023 45.5035 65.9583 45.1968 65.7573 44.8171C65.585 44.4374 65.4271 43.9993 65.2836 43.5028L64.5085 40.48H56.7141C56.4844 41.3562 56.2547 42.2616 56.025 43.1962C55.7954 44.1308 55.5657 45.0362 55.336 45.9123C54.9341 46.0584 54.5035 46.1752 54.0441 46.2628C53.6135 46.3797 53.0824 46.4381 52.4508 46.4381C50.9867 46.4381 49.8957 46.1898 49.178 45.6933C48.489 45.1676 48.1445 44.452 48.1445 43.5466C48.1445 43.1377 48.2019 42.7289 48.3168 42.32C48.4316 41.9111 48.5608 41.4292 48.7043 40.8743C48.9053 40.0857 49.178 39.1073 49.5225 37.939C49.8957 36.7708 50.2977 35.5149 50.7283 34.1714C51.1589 32.7987 51.6183 31.3968 52.1063 29.9657C52.5944 28.5346 53.0537 27.1911 53.4843 25.9352C53.915 24.6501 54.3025 23.5111 54.647 22.5181C55.0202 21.525 55.3073 20.7657 55.5083 20.24ZM60.6759 25.8914C60.2739 27.1181 59.8146 28.4908 59.2978 30.0095C58.8098 31.499 58.3648 33.0177 57.9629 34.5657H63.3027C62.9008 32.9885 62.4845 31.4552 62.0539 29.9657C61.6519 28.4469 61.2787 27.0889 60.9342 25.8914H60.6759Z" fill="black"/>
<path d="M75.1511 35.3542C75.1511 33.4266 75.4382 31.7619 76.0124 30.36C76.5865 28.9289 77.376 27.746 78.3808 26.8114C79.4143 25.8768 80.6058 25.1904 81.9551 24.7523C83.3331 24.285 84.8116 24.0514 86.3906 24.0514C86.9647 24.0514 87.5246 24.1098 88.07 24.2266C88.6155 24.3143 89.0605 24.4311 89.405 24.5771V17.48C89.6921 17.3923 90.1514 17.3047 90.783 17.2171C91.4146 17.1003 92.0605 17.0419 92.7208 17.0419C93.3524 17.0419 93.9122 17.0857 94.4003 17.1733C94.917 17.2609 95.3477 17.4362 95.6922 17.699C96.0367 17.9619 96.2951 18.3269 96.4673 18.7942C96.6396 19.2323 96.7257 19.8165 96.7257 20.5466V41.3123C96.7257 42.685 96.0941 43.7803 94.8309 44.5981C93.9984 45.153 92.9218 45.6349 91.6012 46.0438C90.2806 46.4819 88.759 46.7009 87.0365 46.7009C85.1704 46.7009 83.491 46.4381 81.9981 45.9123C80.534 45.3866 79.2852 44.6273 78.2516 43.6343C77.2468 42.6412 76.4717 41.4584 75.9262 40.0857C75.4095 38.6838 75.1511 37.1066 75.1511 35.3542ZM87.381 29.8781C85.8307 29.8781 84.6393 30.3308 83.8068 31.2362C82.9742 32.1416 82.5579 33.5142 82.5579 35.3542C82.5579 37.165 82.9455 38.5377 83.7206 39.4723C84.4958 40.3777 85.6154 40.8304 87.0796 40.8304C87.5963 40.8304 88.0557 40.7574 88.4576 40.6114C88.8882 40.4362 89.2184 40.2463 89.448 40.0419V30.4038C88.8739 30.0533 88.1849 29.8781 87.381 29.8781Z" fill="black"/>
<path d="M122.948 35.3542C122.948 37.165 122.676 38.786 122.13 40.2171C121.585 41.619 120.81 42.8019 119.805 43.7657C118.829 44.7295 117.652 45.4596 116.274 45.9562C114.896 46.4527 113.36 46.7009 111.666 46.7009C109.972 46.7009 108.436 46.4381 107.058 45.9123C105.68 45.3866 104.489 44.6419 103.484 43.6781C102.508 42.685 101.747 41.4876 101.202 40.0857C100.656 38.6838 100.383 37.1066 100.383 35.3542C100.383 33.6311 100.656 32.0685 101.202 30.6666C101.747 29.2647 102.508 28.0819 103.484 27.1181C104.489 26.125 105.68 25.3657 107.058 24.84C108.436 24.3143 109.972 24.0514 111.666 24.0514C113.36 24.0514 114.896 24.3289 116.274 24.8838C117.652 25.4095 118.829 26.1689 119.805 27.1619C120.81 28.1257 121.585 29.3085 122.13 30.7104C122.676 32.1123 122.948 33.6603 122.948 35.3542ZM107.876 35.3542C107.876 37.1358 108.206 38.5085 108.867 39.4723C109.556 40.4069 110.503 40.8743 111.709 40.8743C112.915 40.8743 113.833 40.3923 114.465 39.4285C115.125 38.4647 115.455 37.1066 115.455 35.3542C115.455 33.6019 115.125 32.2584 114.465 31.3238C113.805 30.36 112.872 29.8781 111.666 29.8781C110.46 29.8781 109.527 30.36 108.867 31.3238C108.206 32.2584 107.876 33.6019 107.876 35.3542Z" fill="black"/>
<path d="M133.841 38.6838C133.841 39.4431 134.07 39.9835 134.53 40.3047C135.018 40.626 135.692 40.7866 136.554 40.7866C136.984 40.7866 137.429 40.7574 137.889 40.699C138.348 40.6114 138.75 40.5092 139.094 40.3923C139.353 40.7136 139.568 41.0787 139.74 41.4876C139.941 41.8673 140.042 42.3346 140.042 42.8895C140.042 43.9993 139.625 44.9047 138.793 45.6057C137.989 46.3066 136.554 46.6571 134.487 46.6571C131.96 46.6571 130.008 46.073 128.63 44.9047C127.281 43.7365 126.606 41.8381 126.606 39.2095V20.459C126.922 20.3714 127.367 20.2838 127.941 20.1962C128.544 20.0793 129.176 20.0209 129.836 20.0209C131.099 20.0209 132.075 20.2546 132.764 20.7219C133.482 21.16 133.841 22.1092 133.841 23.5695V26.3733H139.482C139.654 26.6946 139.812 27.1035 139.956 27.6C140.128 28.0673 140.214 28.593 140.214 29.1771C140.214 30.1993 139.984 30.9441 139.525 31.4114C139.094 31.8495 138.506 32.0685 137.759 32.0685H133.841V38.6838Z" fill="black"/>
<path d="M152.719 41.2685C153.207 41.2685 153.738 41.2247 154.312 41.1371C154.915 41.0203 155.36 40.8743 155.647 40.699V37.1943L152.547 37.4571C151.743 37.5155 151.083 37.6908 150.566 37.9828C150.049 38.2749 149.791 38.713 149.791 39.2971C149.791 39.8812 150.006 40.3631 150.437 40.7428C150.896 41.0933 151.657 41.2685 152.719 41.2685ZM152.375 24.0514C153.925 24.0514 155.332 24.212 156.595 24.5333C157.887 24.8546 158.978 25.3511 159.868 26.0228C160.786 26.6654 161.49 27.4977 161.978 28.52C162.466 29.513 162.71 30.6958 162.71 32.0685V41.8819C162.71 42.6412 162.494 43.2692 162.064 43.7657C161.662 44.233 161.174 44.6419 160.6 44.9923C158.734 46.1314 156.107 46.7009 152.719 46.7009C151.198 46.7009 149.82 46.5549 148.585 46.2628C147.379 45.9708 146.331 45.5327 145.441 44.9485C144.58 44.3644 143.906 43.6196 143.417 42.7143C142.958 41.8089 142.728 40.7574 142.728 39.56C142.728 37.5447 143.317 35.9968 144.494 34.9162C145.671 33.8355 147.494 33.1638 149.963 32.9009L155.604 32.2876V31.9809C155.604 31.1339 155.231 30.5352 154.485 30.1847C153.767 29.805 152.719 29.6152 151.341 29.6152C150.25 29.6152 149.188 29.732 148.154 29.9657C147.121 30.1993 146.188 30.4914 145.355 30.8419C144.982 30.579 144.666 30.1847 144.408 29.659C144.15 29.1041 144.02 28.5346 144.02 27.9504C144.02 27.1911 144.193 26.5923 144.537 26.1543C144.91 25.6869 145.47 25.2927 146.217 24.9714C147.049 24.6501 148.025 24.4165 149.145 24.2704C150.293 24.1244 151.37 24.0514 152.375 24.0514Z" fill="black"/>
<path d="M175.807 31.7619C177.013 31.7619 177.931 31.4844 178.563 30.9295C179.223 30.3454 179.553 29.4692 179.553 28.3009C179.553 27.1911 179.209 26.3441 178.52 25.76C177.86 25.1466 176.884 24.84 175.592 24.84C175.132 24.84 174.745 24.8546 174.429 24.8838C174.142 24.8838 173.84 24.913 173.525 24.9714V31.7619H175.807ZM173.568 45.8247C173.252 45.9123 172.75 46 172.06 46.0876C171.4 46.1752 170.74 46.219 170.08 46.219C169.419 46.219 168.831 46.1606 168.314 46.0438C167.826 45.9562 167.41 45.7809 167.065 45.5181C166.721 45.2552 166.462 44.8901 166.29 44.4228C166.118 43.9555 166.032 43.3422 166.032 42.5828V21.9485C166.032 21.3352 166.19 20.8679 166.505 20.5466C166.85 20.1962 167.309 19.9187 167.883 19.7143C168.859 19.3638 169.965 19.1155 171.199 18.9695C172.462 18.7943 173.726 18.7066 174.989 18.7066C178.951 18.7066 181.979 19.5682 184.075 21.2914C186.171 23.0146 187.219 25.3511 187.219 28.3009C187.219 29.732 186.989 31.0317 186.53 32.2C186.099 33.339 185.439 34.332 184.549 35.179C183.688 35.9968 182.582 36.6393 181.233 37.1066C179.912 37.5447 178.376 37.7638 176.625 37.7638H173.568V45.8247Z" fill="#EC5161"/>
<path d="M200.93 46.7009C199.236 46.7009 197.657 46.4673 196.193 46C194.758 45.5035 193.495 44.7733 192.404 43.8095C191.342 42.8457 190.495 41.6336 189.863 40.1733C189.26 38.713 188.959 37.0044 188.959 35.0476C188.959 33.12 189.26 31.4698 189.863 30.0971C190.495 28.6952 191.313 27.5562 192.318 26.68C193.322 25.7746 194.471 25.1174 195.763 24.7085C197.055 24.2704 198.375 24.0514 199.724 24.0514C201.246 24.0514 202.624 24.285 203.859 24.7523C205.122 25.2196 206.198 25.8622 207.088 26.68C208.007 27.4977 208.71 28.4762 209.198 29.6152C209.715 30.7543 209.973 31.9955 209.973 33.339C209.973 34.332 209.701 35.0914 209.155 35.6171C208.61 36.1428 207.849 36.4787 206.873 36.6247L196.236 38.2457C196.552 39.2095 197.198 39.9396 198.174 40.4362C199.15 40.9035 200.27 41.1371 201.533 41.1371C202.71 41.1371 203.815 40.9911 204.849 40.699C205.911 40.3777 206.772 40.0127 207.433 39.6038C207.892 39.8958 208.28 40.3047 208.595 40.8304C208.911 41.3562 209.069 41.9111 209.069 42.4952C209.069 43.8095 208.466 44.7879 207.26 45.4304C206.342 45.927 205.308 46.2628 204.16 46.4381C203.012 46.6133 201.935 46.7009 200.93 46.7009ZM199.724 29.4838C199.035 29.4838 198.433 29.6006 197.916 29.8343C197.428 30.0679 197.026 30.3746 196.71 30.7543C196.394 31.1047 196.15 31.5136 195.978 31.9809C195.834 32.419 195.748 32.8717 195.72 33.339L203.083 32.1123C202.997 31.5282 202.681 30.9441 202.136 30.36C201.591 29.7758 200.787 29.4838 199.724 29.4838Z" fill="#EC5161"/>
<path d="M220.818 38.6838C220.818 39.4431 221.048 39.9835 221.507 40.3047C221.995 40.626 222.67 40.7866 223.531 40.7866C223.962 40.7866 224.407 40.7574 224.866 40.699C225.325 40.6114 225.727 40.5092 226.072 40.3923C226.33 40.7136 226.545 41.0787 226.718 41.4876C226.919 41.8673 227.019 42.3346 227.019 42.8895C227.019 43.9993 226.603 44.9047 225.77 45.6057C224.966 46.3066 223.531 46.6571 221.464 46.6571C218.938 46.6571 216.985 46.073 215.607 44.9047C214.258 43.7365 213.583 41.8381 213.583 39.2095V20.459C213.899 20.3714 214.344 20.2838 214.918 20.1962C215.521 20.0793 216.153 20.0209 216.813 20.0209C218.076 20.0209 219.052 20.2546 219.741 20.7219C220.459 21.16 220.818 22.1092 220.818 23.5695V26.3733H226.459C226.631 26.6946 226.789 27.1035 226.933 27.6C227.105 28.0673 227.191 28.593 227.191 29.1771C227.191 30.1993 226.962 30.9441 226.502 31.4114C226.072 31.8495 225.483 32.0685 224.737 32.0685H220.818V38.6838Z" fill="#EC5161"/>
<ellipse cx="20.8856" cy="34.6096" rx="20.8856" ry="21.2476" fill="#EC5161"/>
<g clip-path="url(#clip0_57_262)">
<path d="M29.3252 34.2L29.0265 34.1588C28.4721 34.0826 27.9937 33.8451 27.6421 33.4733C25.6527 31.3661 22.7074 31.1407 19.7626 32.8703C16.8178 34.6 15.5371 37.3076 16.3362 40.1139C16.4769 40.6096 16.4398 41.1498 16.2275 41.6764L16.1132 41.9602C15.4423 43.6112 14.9127 44.9161 16.658 46.8413C18.2128 48.5568 20.722 49.1984 22.902 48.4374C23.2865 48.3032 23.6516 48.1332 23.9952 47.9314C24.7096 47.5118 25.3284 46.953 25.8173 46.2786C26.3709 45.5147 27.2224 45.0146 28.1495 44.9087L28.1505 44.909C29.3621 44.7707 30.4993 44.2544 31.4455 43.4193C33.1827 41.8796 33.8911 39.3481 33.208 37.1205C32.4419 34.6205 31.0661 34.4344 29.3252 34.2Z" fill="white"/>
<path d="M14.9848 32.0501C16.4117 31.212 16.7344 29.0542 15.7049 27.2401C14.6753 25.426 12.6772 24.6314 11.2502 25.4695C9.82331 26.3077 9.50061 28.4654 10.5301 30.2795C11.5597 32.0936 13.5578 32.8882 14.9848 32.0501Z" fill="white"/>
<path d="M21.4532 28.2508C22.8801 27.4126 23.2028 25.2549 22.1733 23.4408C21.1438 21.6267 19.1456 20.8321 17.7186 21.6702C16.2917 22.5083 15.969 24.6661 16.9986 26.4802C18.0281 28.2943 20.0263 29.0889 21.4532 28.2508Z" fill="white"/>
<path d="M13.4995 35.6132C12.47 33.7991 10.4718 33.0045 9.04491 33.8426C7.61799 34.6807 7.29529 36.8385 8.32482 38.6526C9.35434 40.4667 11.3525 41.2612 12.7794 40.4231C14.2064 39.585 14.5291 37.4273 13.4995 35.6132Z" fill="white"/>
<path d="M25.949 23.9138C24.5221 24.7519 24.1994 26.9096 25.2289 28.7237C26.2585 30.5378 28.2566 31.3324 29.6836 30.4943C31.1105 29.6562 31.4332 27.4984 30.4037 25.6843C29.3741 23.8702 27.376 23.0756 25.949 23.9138Z" fill="white"/>
</g>
<defs>
<clipPath id="clip0_57_262">
<rect width="25.6056" height="25.8266" fill="white" transform="matrix(0.862265 -0.506458 0.49357 0.869706 3.44504 30.054)"/>
</clipPath>
</defs>
</svg>
